<?xml version="1.0" encoding="UTF-8"?> <svg xmlns="http://www.w3.org/2000/svg" id="Layer_2" viewBox="0 0 20.62 20.76"><defs><style>.cls-1{fill:#0badbf;stroke-width:0px;}</style></defs><g id="Layer_1-2"><path class="cls-1" d="m16.37,20.76c-.28,0-.55-.11-.77-.32-.43-.42-.43-1.11,0-1.54,3.79-3.82,3.79-10.04,0-13.86-1.84-1.85-4.27-2.87-6.87-2.87S3.69,3.19,1.86,5.04c-.42.43-1.11.43-1.54,0-.43-.42-.43-1.11,0-1.54C2.56,1.25,5.55,0,8.73,0s6.17,1.25,8.41,3.51c4.63,4.67,4.63,12.26,0,16.93-.21.21-.49.32-.77.32Z"></path><path class="cls-1" d="m13.51,17.88c-.28,0-.55-.11-.77-.32-.43-.42-.43-1.11,0-1.54,2.22-2.23,2.22-5.87,0-8.1-1.07-1.08-2.49-1.67-4.01-1.67s-2.94.59-4.01,1.67c-.42.43-1.11.43-1.54,0-.43-.42-.43-1.11,0-1.54,1.48-1.49,3.45-2.32,5.55-2.32s4.07.82,5.55,2.32c3.06,3.08,3.06,8.09,0,11.16-.21.21-.49.32-.77.32Z"></path><path class="cls-1" d="m10.71,15.06c-.28,0-.55-.11-.77-.32-.43-.42-.43-1.11,0-1.54.67-.68.67-1.78,0-2.45-.65-.65-1.77-.65-2.41,0-.42.43-1.11.43-1.54,0-.43-.42-.43-1.11,0-1.54.73-.74,1.71-1.15,2.75-1.15s2.02.41,2.75,1.15c1.51,1.52,1.51,4,0,5.52-.21.21-.49.32-.77.32Z"></path></g></svg> 